<svg xmlns="http://www.w3.org/2000/svg" width="145.453" height="18.696">
    <defs>
        <style>
            .cls-1{fill:#ff8900}
            .theme-fill{fill:#fff}
        </style>
    </defs>
    <g id="Сгруппировать_779" data-name="Сгруппировать 779" transform="translate(-634 -253.547)">
        <g id="Слой_8_копия_" data-name="Слой 8 (копия)" transform="translate(751.024 253.83)">
            <path id="Контур_1654" data-name="Контур 1654" class="cls-1" d="m11785.238 1096.266 5.215-7.89h-3.74l-3.378 5.3-2.608-4.016a2.8 2.8 0 0 0-2.349-1.282h-4.548v9.01c0 3.1-1.219 4.388-3.335 4.388-2.095 0-3.335-1.284-3.335-4.388v-5.5a3.485 3.485 0 0 0-3.463-3.507v9.15c0 4.809 2.522 7.47 6.776 7.47s6.776-2.661 6.776-7.47v-7.18l3.969 6.06-5.536 8.31h3.976l3.549-5.672 4.108 6.466a2.748 2.748 0 0 0 2.317 1.279h2.494z" transform="translate(-11763.697 -1088.376)"/>
        </g>
        <g id="Слой_8_копия_2" data-name="Слой 8 копия 2" transform="translate(634 253.547)">
            <g id="Сгруппировать_220" data-name="Сгруппировать 220">
                <path id="Контур_1655" data-name="Контур 1655" class="cls-1" d="M1225.478 1101.15h-7.627l-1.455 3.52h-3.9l7.322-16.427h3.755l7.345 16.427h-3.989zm-1.2-2.886-2.6-6.289-2.6 6.289z" transform="translate(-1212.501 -1087.962)"/>
                <path id="Контур_1656" data-name="Контур 1656" class="cls-1" d="M2925.72 1071.091h3.473v6.664a11.335 11.335 0 0 1-6.641 2.089c-5.163 0-8.964-3.543-8.964-8.495s3.8-8.495 9.035-8.495a8.756 8.756 0 0 1 6.875 2.839l-2.44 2.253a5.559 5.559 0 0 0-4.247-1.854 5.257 5.257 0 1 0-.047 10.513 6.036 6.036 0 0 0 2.957-.7z" transform="translate(-2894.721 -1062.854)"/>
                <path id="Контур_1657" data-name="Контур 1657" class="cls-1" d="M4650.668 1101.62v3.051h-12.719v-16.427h12.414v3.051h-8.636v3.567h7.627v2.957h-7.627v3.8z" transform="translate(-4599.958 -1087.962)"/>
                <path id="Контур_1658" data-name="Контур 1658" class="cls-1" d="M6072.685 1088.244v16.427h-3.121l-8.189-9.973v9.973h-3.755v-16.427h1.71a3.028 3.028 0 0 1 2.343 1.11l7.258 8.863v-9.973z" transform="translate(-6003.882 -1087.962)"/>
                <path id="Контур_1659" data-name="Контур 1659" class="cls-1" d="M7674.084 1071.349c0-4.951 3.8-8.495 8.917-8.495a8.48 8.48 0 0 1 6.758 2.91l-2.44 2.253a5.285 5.285 0 0 0-4.13-1.924 5.256 5.256 0 1 0 0 10.513 5.235 5.235 0 0 0 4.13-1.948l2.44 2.253a8.44 8.44 0 0 1-6.782 2.933c-5.091 0-8.893-3.544-8.893-8.495z" transform="translate(-7602.418 -1062.854)"/>
                <path id="Контур_1660" class="theme-fill" data-name="Контур 1660" d="M9108.164 1098.851v5.82h-3.8v-5.871l-6.359-10.56h2.559a2.613 2.613 0 0 1 2.239 1.266l3.627 6.032 4.388-7.3h3.731z" transform="translate(-9010.545 -1087.962)"/>
            </g>
            <circle id="Эллипс_101" data-name="Эллипс 101" class="cls-1" cx="2.419" cy="2.419" r="2.419" transform="translate(106.671 6.311)"/>
        </g>
    </g>
</svg>
