<svg xmlns="http://www.w3.org/2000/svg" width="23" height="22.998">
    <path data-name="Объединение 16" d="M7327.839-854a.93.93 0 0 1-.93-.929v-.989a1 1 0 0 0-.677-.94 8.258 8.258 0 0 1-1.052-.438.952.952 0 0 0-1.1.173l-.721.722a.94.94 0 0 1-.658.265.926.926 0 0 1-.655-.265l-1.643-1.641a.934.934 0 0 1 0-1.316l.732-.731a.955.955 0 0 0 .177-1.1 8.325 8.325 0 0 1-.436-1.049.981.981 0 0 0-.928-.673h-1.017a.931.931 0 0 1-.929-.931v-2.32a.929.929 0 0 1 .929-.929h1.034a.979.979 0 0 0 .927-.669 8.7 8.7 0 0 1 .435-1.032.953.953 0 0 0-.174-1.1l-.751-.75a.923.923 0 0 1-.271-.656.916.916 0 0 1 .271-.658l1.643-1.643a.926.926 0 0 1 .655-.265.932.932 0 0 1 .656.265l.761.761a.953.953 0 0 0 1.1.175 8.4 8.4 0 0 1 1.034-.429.966.966 0 0 0 .66-.914v-1.062a.929.929 0 0 1 .93-.929h2.322a.928.928 0 0 1 .929.929v1.062a.967.967 0 0 0 .66.914 8.335 8.335 0 0 1 1.034.429.957.957 0 0 0 1.1-.175l.76-.761a.933.933 0 0 1 1.314 0l1.643 1.643a.916.916 0 0 1 .271.658.923.923 0 0 1-.271.656l-.752.75a.955.955 0 0 0-.173 1.1 8.864 8.864 0 0 1 .434 1.032.982.982 0 0 0 .925.669h1.038a.932.932 0 0 1 .93.929v2.32a.933.933 0 0 1-.93.931h-1.019a.98.98 0 0 0-.928.673 8.635 8.635 0 0 1-.436 1.049.954.954 0 0 0 .178 1.1l.732.731a.931.931 0 0 1 0 1.316l-1.641 1.641a.935.935 0 0 1-1.316 0l-.722-.722a.952.952 0 0 0-1.1-.173 8.524 8.524 0 0 1-1.049.438 1 1 0 0 0-.68.94v.989a.929.929 0 0 1-.929.929zm-2.286-4.046a8.587 8.587 0 0 0 .948.4 1.832 1.832 0 0 1 1.244 1.73v.989a.094.094 0 0 0 .094.094h2.322a.1.1 0 0 0 .094-.094v-.989a1.827 1.827 0 0 1 1.243-1.73 8.11 8.11 0 0 0 .946-.4 1.792 1.792 0 0 1 2.066.331l.722.724a.1.1 0 0 0 .135 0l1.641-1.641a.094.094 0 0 0 .025-.066.1.1 0 0 0-.025-.066l-.732-.731a1.794 1.794 0 0 1-.334-2.059 7.777 7.777 0 0 0 .392-.949 1.818 1.818 0 0 1 1.72-1.241h1.019a.091.091 0 0 0 .092-.094v-2.32a.093.093 0 0 0-.092-.094h-1.038a1.821 1.821 0 0 1-1.718-1.231 7.655 7.655 0 0 0-.389-.932 1.79 1.79 0 0 1 .329-2.068l.752-.75a.092.092 0 0 0 .025-.064.1.1 0 0 0-.025-.068l-1.641-1.641a.093.093 0 0 0-.066-.028.094.094 0 0 0-.068.028l-.758.761a1.793 1.793 0 0 1-2.06.333 7.38 7.38 0 0 0-.935-.387 1.806 1.806 0 0 1-1.226-1.707v-1.062a.1.1 0 0 0-.094-.094h-2.322a.094.094 0 0 0-.094.094v1.062a1.807 1.807 0 0 1-1.227 1.707 7.55 7.55 0 0 0-.934.387 1.79 1.79 0 0 1-2.06-.333l-.761-.761a.1.1 0 0 0-.131 0l-1.643 1.643a.1.1 0 0 0-.027.068.094.094 0 0 0 .027.064l.753.75a1.794 1.794 0 0 1 .329 2.068 7.363 7.363 0 0 0-.39.932 1.823 1.823 0 0 1-1.72 1.231h-1.034a.1.1 0 0 0-.094.094v2.32a.093.093 0 0 0 .094.094h1.017a1.819 1.819 0 0 1 1.721 1.241 7.62 7.62 0 0 0 .391.949 1.785 1.785 0 0 1-.333 2.059l-.733.731a.1.1 0 0 0-.027.066.1.1 0 0 0 .027.066l1.643 1.643a.1.1 0 0 0 .066.024.092.092 0 0 0 .064-.024l.725-.724a1.777 1.777 0 0 1 1.261-.521 1.811 1.811 0 0 1 .804.185zM7322.81-865a6.2 6.2 0 0 1 6.188-6.191 6.2 6.2 0 0 1 6.191 6.191 6.2 6.2 0 0 1-6.189 6.19 6.2 6.2 0 0 1-6.19-6.19zm.838 0a5.36 5.36 0 0 0 5.351 5.356 5.363 5.363 0 0 0 5.356-5.356 5.361 5.361 0 0 0-5.356-5.354 5.358 5.358 0 0 0-5.352 5.354z" transform="translate(-7317.501 876.499)" style="fill:#fff;stroke:transparent;stroke-miterlimit:10"/>
</svg>
