<svg xmlns="http://www.w3.org/2000/svg" width="22.44" height="22.001">
    <path data-name="Контур 11607" d="M1093.3 548.64a.4.4 0 0 0-.12-.288.408.408 0 0 0-.575 0l-2.664 2.664-7.282-7.309 5.015-5.016a.407.407 0 0 0-.574-.575l-5.015 5.015-2.3-2.31a.407.407 0 0 0-.575 0 .406.406 0 0 0 0 .574l2.3 2.31-7.716 7.717a.4.4 0 0 0-.026.546c.1.117 2.323 2.9.006 7.216h-2.506a.407.407 0 1 0 0 .813h2.748a.4.4 0 0 0 .156-.033l.022-.009c.044-.021 4.479-2.14 7.611-.109a.409.409 0 0 0 .509-.053l7.626-7.626 2.329 2.337a.417.417 0 0 0 .575 0 .409.409 0 0 0 0-.575l-2.33-2.338 2.665-2.665a.405.405 0 0 0 .121-.286zm-10.742 3.354a.584.584 0 0 1-.48.164l.068-.067a.407.407 0 0 0-.573-.578l-.024.023a.587.587 0 0 1 .173-.378.605.605 0 0 1 .836 0 .59.59 0 0 1 0 .836zm-1.119.8a1.43 1.43 0 1 0-.554-.6l-5.642 5.6a7.647 7.647 0 0 0 .206-4.019 6.492 6.492 0 0 0-.837-2.027l7.472-7.472 7.282 7.31-7.4 7.4a6.85 6.85 0 0 0-3.431-.845 10.937 10.937 0 0 0-2.915.426z" transform="translate(-1070.865 -537.997)" style="fill:#fff"/>
</svg>
