<svg xmlns="http://www.w3.org/2000/svg" width="23" height="22.833">
    <path data-name="Объединение 9" d="M-8374 67.869a9.975 9.975 0 0 1 9.55-9.952v-1.8a.115.115 0 0 1 .115-.116h.3a11.96 11.96 0 0 1 8.509 3.525 11.958 11.958 0 0 1 3.526 8.509v.3a.113.113 0 0 1-.113.113h-1.977a9.976 9.976 0 0 1-9.946 9.384 9.976 9.976 0 0 1-9.964-9.963zm.828 0a9.144 9.144 0 0 0 9.134 9.131 9.148 9.148 0 0 0 9.118-8.557h-9.417a.115.115 0 0 1-.115-.113v-9.585a9.145 9.145 0 0 0-8.722 9.124zm9.551-.248h10.787a11.158 11.158 0 0 0-3.277-7.511 11.134 11.134 0 0 0-7.51-3.274z" transform="translate(8374.502 -55.499)" style="fill:#fff;stroke:transparent;stroke-miterlimit:10"/>
</svg>
