<svg xmlns="http://www.w3.org/2000/svg" width="14.785" height="14.785">
    <defs>
        <style>
            .cls-1{fill:#fff}
        </style>
    </defs>
    <g id="Сгруппировать_12603" data-name="Сгруппировать 12603" transform="translate(-323 -22)">
        <path id="Path" class="cls-1" d="M18.288 0a.9.9 0 0 1 .962.83.9.9 0 0 1-.962.83H.962A.9.9 0 0 1 0 .83.9.9 0 0 1 .962 0z" transform="rotate(45 135.53 402.311)"/>
        <path id="Path-2" data-name="Path" class="cls-1" d="M18.284 0a.9.9 0 0 1 .962.83.9.9 0 0 1-.962.83H.962A.9.9 0 0 1 0 .83.9.9 0 0 1 .962 0z" transform="rotate(-45 204.484 -372.091)"/>
    </g>
</svg>
