<svg xmlns="http://www.w3.org/2000/svg" width="1537.059" height="1529.367">
    <defs>
        <style>
            .cls-3,.cls-4{fill:none;stroke:#fff;stroke-miterlimit:10}.cls-3{stroke-width:1.559px}.cls-4{stroke-width:1.563px}
        </style>
    </defs>
    <g id="Сгруппировать_12225" data-name="Сгруппировать 12225" transform="translate(77.785 -488.769)" style="opacity:.04">
        <g id="Сгруппировать_766" data-name="Сгруппировать 766" transform="translate(-76.98 489.574)">
            <path id="Прямоугольник_8380" data-name="Прямоугольник 8380" style="stroke-width:1.61px;fill:none;stroke:#fff;stroke-miterlimit:10" d="M0 0h1535.449v1527.757H0z"/>
        </g>
        <g id="Сгруппировать_767" data-name="Сгруппировать 767" transform="translate(74.658 489.574)">
            <path id="Линия_205" data-name="Линия 205" class="cls-3" d="M0 1527.757V0"/>
            <path id="Линия_206" data-name="Линия 206" class="cls-3" transform="translate(154.114)" d="M0 1527.757V0"/>
            <path id="Линия_207" data-name="Линия 207" class="cls-3" transform="translate(308.227)" d="M0 1527.757V0"/>
            <path id="Линия_208" data-name="Линия 208" class="cls-3" transform="translate(462.341)" d="M0 1527.757V0"/>
            <path id="Линия_209" data-name="Линия 209" class="cls-3" transform="translate(616.454)" d="M0 1527.757V0"/>
            <path id="Линия_210" data-name="Линия 210" class="cls-3" transform="translate(770.568)" d="M0 1527.757V0"/>
            <path id="Линия_211" data-name="Линия 211" class="cls-3" transform="translate(924.681)" d="M0 1527.757V0"/>
            <path id="Линия_212" data-name="Линия 212" class="cls-3" transform="translate(1078.795)" d="M0 1527.757V0"/>
            <path id="Линия_213" data-name="Линия 213" class="cls-3" transform="translate(1232.908)" d="M0 1527.757V0"/>
        </g>
        <g id="Сгруппировать_768" data-name="Сгруппировать 768" transform="translate(-76.245 636.998)">
            <path id="Линия_214" data-name="Линия 214" class="cls-4" transform="translate(0 1232.908)" d="M1534.714 0H0"/>
            <path id="Линия_215" data-name="Линия 215" class="cls-4" transform="translate(0 1078.794)" d="M1534.714 0H0"/>
            <path id="Линия_216" data-name="Линия 216" class="cls-4" transform="translate(0 924.681)" d="M1534.714 0H0"/>
            <path id="Линия_217" data-name="Линия 217" class="cls-4" transform="translate(0 770.568)" d="M1534.714 0H0"/>
            <path id="Линия_218" data-name="Линия 218" class="cls-4" transform="translate(0 616.454)" d="M1534.714 0H0"/>
            <path id="Линия_219" data-name="Линия 219" class="cls-4" transform="translate(0 462.34)" d="M1534.714 0H0"/>
            <path id="Линия_220" data-name="Линия 220" class="cls-4" transform="translate(0 308.227)" d="M1534.714 0H0"/>
            <path id="Линия_221" data-name="Линия 221" class="cls-4" transform="translate(0 154.113)" d="M1534.714 0H0"/>
            <path id="Линия_222" data-name="Линия 222" class="cls-4" d="M1534.714 0H0"/>
        </g>
    </g>
</svg>
