<svg xmlns="http://www.w3.org/2000/svg" width="33" height="33">
    <path data-name="Исключение 7" d="M2304 4224a16 16 0 1 1 16-16 16.018 16.018 0 0 1-16 16zm0-28.8a12.8 12.8 0 1 0 12.8 12.8 12.815 12.815 0 0 0-12.8-12.8zm-3.2 19.2a1.589 1.589 0 0 1-1.13-.469l-4.8-4.8-.118-.13-.117-.17-.084-.155-.07-.178-.047-.177-.029-.2v-.12l.01-.188.047-.237.056-.168.086-.181.113-.178.088-.107.068-.071 4.8-4.8.15-.134a1.6 1.6 0 0 1 2.111.134l.134.15.112.162a1.6 1.6 0 0 1-.245 1.95l-2.068 2.068H2312a1.6 1.6 0 0 1 0 3.2h-12.135l2.065 2.068.134.15a1.6 1.6 0 0 1-1.264 2.581z" transform="translate(-2287.5 -4191.5)" style="stroke:transparent;stroke-miterlimit:10;"/>
</svg>
