<svg xmlns="http://www.w3.org/2000/svg" width="23" height="22.998">
    <path d="M7328.64-854.363v-4.694a.36.36 0 0 1 .36-.359.359.359 0 0 1 .359.359v4.694a.359.359 0 0 1-.359.363.361.361 0 0 1-.36-.363zm7.981-2.505-3.319-3.32a.361.361 0 0 1 0-.512.36.36 0 0 1 .508 0l3.321 3.322a.362.362 0 0 1 0 .509.366.366 0 0 1-.255.1.357.357 0 0 1-.255-.099zm-15.753 0a.362.362 0 0 1 0-.509l3.319-3.322a.362.362 0 0 1 .51 0 .361.361 0 0 1 0 .512l-3.319 3.32a.36.36 0 0 1-.255.1.362.362 0 0 1-.255-.101zm14.076-7.771a.362.362 0 0 1-.36-.359.361.361 0 0 1 .36-.361h4.694a.361.361 0 0 1 .36.361.362.362 0 0 1-.36.359zm-16.584 0a.362.362 0 0 1-.36-.361.361.361 0 0 1 .361-.361h4.7a.359.359 0 0 1 .359.361.36.36 0 0 1-.359.359zm14.94-4.661a.359.359 0 0 1 0-.509l3.319-3.32a.362.362 0 0 1 .51 0 .362.362 0 0 1 0 .51l-3.321 3.32a.357.357 0 0 1-.253.1.355.355 0 0 1-.255-.101zm-9.114 0-3.319-3.32a.362.362 0 0 1 0-.51.362.362 0 0 1 .51 0l3.319 3.32a.359.359 0 0 1 0 .509.36.36 0 0 1-.254.1.366.366 0 0 1-.254-.099zm4.452-1.643v-4.694A.362.362 0 0 1 7329-876a.361.361 0 0 1 .359.361v4.694a.361.361 0 0 1-.359.361.362.362 0 0 1-.36-.361z" transform="translate(-7317.499 876.5)" style="fill:#ff8900;stroke:transparent;stroke-miterlimit:10"/>
</svg>
