<svg xmlns="http://www.w3.org/2000/svg" width="14" height="14.003" viewBox="0 0 14 14.003">
  <path d="M4.944,14.152H6.256a.415.415,0,0,1,.305.123l.942.935a1.681,1.681,0,0,0,1.153.591,1.7,1.7,0,0,0,1.159-.591l.935-.935a.415.415,0,0,1,.305-.123h1.312a1.7,1.7,0,0,0,1.244-.4,1.686,1.686,0,0,0,.4-1.237V11.191a.421.421,0,0,1,.123-.3l.935-.942A1.648,1.648,0,0,0,15.655,8.8a1.726,1.726,0,0,0-.588-1.162L14.133,6.7a.407.407,0,0,1-.123-.3V5.08a1.688,1.688,0,0,0-.4-1.234,1.688,1.688,0,0,0-1.244-.4H11.055a.415.415,0,0,1-.305-.123l-.935-.935A1.687,1.687,0,0,0,8.655,1.8,1.7,1.7,0,0,0,7.5,2.386l-.942.935a.415.415,0,0,1-.305.123H4.944a1.707,1.707,0,0,0-1.24.4,1.676,1.676,0,0,0-.4,1.24V6.4a.419.419,0,0,1-.117.3l-.935.935A1.683,1.683,0,0,0,1.655,8.8,1.677,1.677,0,0,0,2.249,9.95l.935.942a.433.433,0,0,1,.117.3v1.325a1.68,1.68,0,0,0,.4,1.234A1.69,1.69,0,0,0,4.944,14.152ZM4.99,13.1a.8.8,0,0,1-.516-.11.8.8,0,0,1-.12-.519V10.84a.645.645,0,0,0-.182-.455L3.029,9.249q-.292-.3-.292-.451t.292-.445L4.171,7.217a.655.655,0,0,0,.188-.455V5.132a.8.8,0,0,1,.11-.523A.819.819,0,0,1,4.99,4.5H6.613a.627.627,0,0,0,.461-.188L8.21,3.171q.292-.292.445-.292t.445.292l1.136,1.143A.627.627,0,0,0,10.7,4.5h1.623a.814.814,0,0,1,.526.11.8.8,0,0,1,.11.519v1.63a.631.631,0,0,0,.182.455l1.143,1.136q.292.292.292.445t-.292.451l-1.143,1.136a.645.645,0,0,0-.182.455v1.63a.8.8,0,0,1-.11.519.814.814,0,0,1-.526.11H10.7a.627.627,0,0,0-.461.188L9.1,14.431q-.292.286-.445.286t-.445-.286L7.074,13.288a.627.627,0,0,0-.461-.188Zm3-1.383a.6.6,0,0,0,.526-.305l2.792-4.357q.052-.1.1-.2a.486.486,0,0,0,.049-.208.425.425,0,0,0-.166-.347.572.572,0,0,0-.367-.133.543.543,0,0,0-.461.3L7.97,10.45,6.8,8.944a.684.684,0,0,0-.224-.192A.55.55,0,0,0,6.334,8.7a.487.487,0,0,0-.367.153.512.512,0,0,0-.146.367.657.657,0,0,0,.156.4l1.468,1.792a.837.837,0,0,0,.253.234A.6.6,0,0,0,7.99,11.717Z" transform="translate(-1.655 -1.798)" fill="#ff8900"/>
</svg>
