<svg xmlns="http://www.w3.org/2000/svg" width="1162.184" height="181.048">
    <path data-name="Контур 12583" d="M-575.156 0v-148.4h41.128v60.208l51.092-60.208h48.76l-56.18 63.812L-432.268 0h-49.4l-37.312-55.12-15.052 16.748V0zm286.412-19.5q-22.9 22.472-57.028 22.472T-402.694-19.4q-22.79-22.366-22.79-54.8 0-32.224 23-54.7t57.134-22.472q34.132 0 56.922 22.366t22.79 54.8q.002 32.23-23.106 54.706zm-56.6-14.628q16.748 0 27.242-11.66t10.49-28.412a40.358 40.358 0 0 0-10.812-28.3q-10.812-11.766-27.348-11.766t-27.03 11.66Q-383.3-90.948-383.3-74.2a40.583 40.583 0 0 0 10.71 28.3q10.706 11.768 27.242 11.768zM-244.224 0v-148.4h43.46l35.4 57.452 35.4-57.452H-86.5V0h-40.916v-85.224l-37.944 58.088h-.848L-203.944-84.8V0zM-72.08 0-8.9-149.46h39.64L93.916 0H49.82L39.008-26.5h-57.24L-28.832 0zm65.932-58.512h33.284L10.6-100.7zM108.332 0v-148.4h41.128v55.544h52.788V-148.4h41.128V0h-41.128v-56.392H149.46V0zM258.64 29.68v-65.72h13.144a222.8 222.8 0 0 0 11.554-45.16q3.5-23.532 3.5-63.388v-3.812h113v112.36h16.742l-4.664 65.72h-34.768V0h-78.864l-2.756 29.68zm56.18-65.72h43.88v-76.32h-32.22v1.484q0 39.856-11.66 74.836zM421.032 0l63.176-149.46h39.644L587.028 0h-44.1L532.12-26.5h-57.24L464.28 0zm65.932-58.512h33.284L503.712-100.7z" transform="translate(575.156 151.368)" style="fill:#b9b9b9;opacity:.1"/>
</svg>
