<svg xmlns="http://www.w3.org/2000/svg" width="293.409" height="41.448">
    <path data-name="Контур 11762" d="M27.977-28.018a10.256 10.256 0 0 1 4.242 3.7 9.994 9.994 0 0 1 1.515 5.514 11.575 11.575 0 0 1-1.878 6.575 12.438 12.438 0 0 1-5.3 4.393 19.045 19.045 0 0 1-8.029 1.576 17.946 17.946 0 0 1-9.456-2.488 16.468 16.468 0 0 1-6.3-6.787l5.7-4.121q3.878 5.817 10 5.817a8.712 8.712 0 0 0 5.151-1.454 4.577 4.577 0 0 0 2.06-3.939 4.311 4.311 0 0 0-1.636-3.515 7.54 7.54 0 0 0-4.848-1.333h-5.279v-6.726h4.666a5.633 5.633 0 0 0 3.939-1.273 4.3 4.3 0 0 0 1.394-3.333 4.335 4.335 0 0 0-1.485-3.424 6.086 6.086 0 0 0-4.151-1.3q-5.272 0-8.3 5.211l-5.7-4.06a15.6 15.6 0 0 1 5.757-6.423 16.049 16.049 0 0 1 8.665-2.3q6.12 0 9.7 3.121a10.717 10.717 0 0 1 3.575 8.514 9.654 9.654 0 0 1-1.06 4.484 11.069 11.069 0 0 1-2.942 3.571zM63.608-12.2H47.247L45-6.991h-8.782l17.876-40.721h2.727L74.637-6.991H65.85zm-8.18-20.242L50.1-18.929h10.66zM105.42-6.991 88.271-27.836v20.845H80.09v-39.994h8.181v18.543l15.27-18.543h9.759L97.966-28.139 115.3-6.991zm38.842-5.209H127.9l-2.242 5.211h-8.787l17.876-40.721h2.727l17.817 40.719H146.5zm-8.181-20.239-5.333 13.513h10.665zm47.019 4.421a10.256 10.256 0 0 1 4.242 3.7 9.994 9.994 0 0 1 1.515 5.514 11.575 11.575 0 0 1-1.878 6.575 12.438 12.438 0 0 1-5.3 4.393 19.045 19.045 0 0 1-8.029 1.576 17.946 17.946 0 0 1-9.45-2.488 16.468 16.468 0 0 1-6.3-6.787l5.7-4.121q3.878 5.817 10 5.817a8.713 8.713 0 0 0 5.151-1.454 4.577 4.577 0 0 0 2.06-3.939 4.311 4.311 0 0 0-1.636-3.515 7.54 7.54 0 0 0-4.848-1.333h-5.272v-6.726h4.666a5.633 5.633 0 0 0 3.939-1.273 4.3 4.3 0 0 0 1.394-3.333 4.335 4.335 0 0 0-1.485-3.424 6.086 6.086 0 0 0-4.151-1.3q-5.272 0-8.3 5.211l-5.7-4.06a15.6 15.6 0 0 1 5.757-6.423 16.049 16.049 0 0 1 8.665-2.3q6.12 0 9.7 3.121a10.717 10.717 0 0 1 3.575 8.514 9.653 9.653 0 0 1-1.06 4.484 11.068 11.068 0 0 1-2.955 3.571zM218.736-12.2h-16.361l-2.242 5.211h-8.787l17.876-40.721h2.727l17.815 40.719h-8.787zm-8.181-20.239-5.333 13.513h10.665zm29.147-7.15h-12.786v-7.393h33.813v7.393h-12.846v32.6H239.7zm26.42-7.393h8.178v13.755h7.272a16.709 16.709 0 0 1 7.575 1.666 12.566 12.566 0 0 1 5.181 4.636 12.575 12.575 0 0 1 1.848 6.787 12.8 12.8 0 0 1-1.848 6.908 12.363 12.363 0 0 1-5.181 4.605 16.967 16.967 0 0 1-7.575 1.636h-15.45zM281.575-14.2a6.318 6.318 0 0 0 4.575-1.606 5.659 5.659 0 0 0 1.666-4.272 5.861 5.861 0 0 0-1.666-4.333 6.182 6.182 0 0 0-4.575-1.666H274.3V-14.2z" transform="translate(-2.769 47.712)" style="fill:#fff;opacity:.1"/>
</svg>
