<svg xmlns="http://www.w3.org/2000/svg" width="23" height="22.815">
    <path data-name="Объединение 14" d="M7333.986-857.191a2.991 2.991 0 0 1 .148-.935l-10.633-5.189a3.01 3.01 0 0 1-2.5 1.331 3.013 3.013 0 0 1-3.008-3.008 3.011 3.011 0 0 1 3.008-3.006 3.007 3.007 0 0 1 2.478 1.3l10.661-5.335a2.979 2.979 0 0 1-.159-.965 3.01 3.01 0 0 1 3-3.008 3.011 3.011 0 0 1 3.008 3.008 3.008 3.008 0 0 1-3.008 3 3 3 0 0 1-2.476-1.3l-10.66 5.337a2.975 2.975 0 0 1 .159.964 2.994 2.994 0 0 1-.149.935l10.633 5.189a3.006 3.006 0 0 1 2.493-1.329 3.009 3.009 0 0 1 3.008 3.006 3.009 3.009 0 0 1-3.008 3.006 3.008 3.008 0 0 1-2.995-3.001zm.824 0a2.183 2.183 0 0 0 2.181 2.179 2.182 2.182 0 0 0 2.182-2.179 2.183 2.183 0 0 0-2.182-2.181 2.184 2.184 0 0 0-1.935 1.176.346.346 0 0 1-.021.051.306.306 0 0 1-.027.048 2.167 2.167 0 0 0-.198.906zm-15.985-7.8a2.185 2.185 0 0 0 2.182 2.181 2.182 2.182 0 0 0 2.181-2.181 2.157 2.157 0 0 0-.217-.948.266.266 0 0 1-.014-.026.292.292 0 0 1-.013-.026 2.183 2.183 0 0 0-1.937-1.179 2.184 2.184 0 0 0-2.182 2.179zm18.166-5.821a2.182 2.182 0 0 0 2.182-2.179 2.183 2.183 0 0 0-2.182-2.181 2.184 2.184 0 0 0-2.181 2.181 2.165 2.165 0 0 0 .215.943l.019.033.015.032a2.185 2.185 0 0 0 1.932 1.17z" transform="translate(-7317.499 876.5)" style="fill:#fff;stroke:transparent;stroke-miterlimit:10"/>
</svg>
