<svg xmlns="http://www.w3.org/2000/svg" width="1279.208" height="154.336">
    <path data-name="Контур 12584" d="M-639.6 0v-148.4h41.128v60.208l51.092-60.208h48.76l-56.18 63.812L-496.716 0h-49.4l-37.312-55.12-15.052 16.748V0zm286.412-19.5q-22.9 22.472-57.028 22.472T-467.142-19.4q-22.79-22.366-22.79-54.8 0-32.224 23-54.7t57.134-22.472q34.132 0 56.922 22.366t22.79 54.8q.002 32.23-23.106 54.706zm-56.6-14.628q16.748 0 27.242-11.66T-372.06-74.2a40.358 40.358 0 0 0-10.812-28.3q-10.812-11.766-27.348-11.766t-27.03 11.66q-10.494 11.66-10.494 28.408a40.583 40.583 0 0 0 10.706 28.3q10.706 11.766 27.238 11.766zM-308.672 0v-148.4h41.128v55.544h52.788V-148.4h41.128V0h-41.128v-56.392h-52.788V0zm197.584 0v-112.36h-44.52v-36.04H-25.44v36.04h-44.52V0zm91.8 0 63.172-149.46h39.644L146.7 0h-44.1L91.8-26.5H34.556L23.956 0zM46.64-58.512h33.284L63.388-100.7zM161.12 0v-148.4h41.128v60.208L253.34-148.4h48.76l-56.18 63.812L304.008 0h-49.4L217.3-55.12l-15.052 16.748V0zm191.012 0v-112.36h-44.52v-36.04H437.78v36.04h-44.52V0zM455.8 0v-148.4h41.128v46.64H519.4q27.772 0 44.732 13.038t16.96 37.422q0 23.956-16.112 37.63T521.52 0zm41.128-34.556h21.412q10.388 0 16.006-4.558t5.618-13.25a15.3 15.3 0 0 0-5.724-12.508q-5.724-4.664-15.688-4.664h-21.624zM598.476 0v-148.4H639.6V0z" transform="translate(639.604 151.368)" style="fill:#b9b9b9;opacity:.1"/>
</svg>
