<svg xmlns="http://www.w3.org/2000/svg" width="260" height="260" viewBox="0 0 260 260">
  <g id="Сгруппировать_12917" data-name="Сгруппировать 12917" transform="translate(5176 -8498)">
    <g id="Слой_8_копия_" data-name="Слой 8 (копия)" transform="translate(-5176 8544)">
      <path id="Контур_1654" data-name="Контур 1654" d="M11960.7,1160.532l47.688-72.156h-34.2l-30.891,48.46-23.852-36.731a25.634,25.634,0,0,0-21.484-11.729h-41.594v82.4c0,28.393-11.141,40.134-30.492,40.134-19.164,0-30.5-11.741-30.5-40.134v-50.332a31.878,31.878,0,0,0-31.672-32.071h0v83.684c0,43.977,23.07,68.313,61.969,68.313s61.977-24.337,61.977-68.313v-65.668l36.3,55.421-50.633,76h36.359l32.453-51.876,37.57,59.132a25.148,25.148,0,0,0,21.2,11.7h22.813Z" transform="translate(-11763.695 -1088.376)" fill="#ff8900"/>
    </g>
    <rect id="Прямоугольник_8648" data-name="Прямоугольник 8648" width="260" height="260" transform="translate(-5176 8498)" fill="none"/>
  </g>
</svg>
