<svg xmlns="http://www.w3.org/2000/svg" width="17.934" height="17.935">
    <g data-name="Компонент 11 – 1">
        <path data-name="Исключение 1" d="M8.468 16.935c-2.266 0-2.57-.01-3.492-.052a6.273 6.273 0 0 1-2.054-.393 4.151 4.151 0 0 1-1.5-.977 4.146 4.146 0 0 1-.976-1.5 6.252 6.252 0 0 1-.393-2.055c-.043-.9-.053-1.2-.053-3.49s.01-2.59.052-3.491a6.248 6.248 0 0 1 .393-2.055 4.154 4.154 0 0 1 .976-1.5 4.165 4.165 0 0 1 1.5-.977A6.249 6.249 0 0 1 4.976.051C5.9.01 6.2 0 8.468 0s2.57.01 3.491.051a6.264 6.264 0 0 1 2.055.393 4.328 4.328 0 0 1 2.476 2.478 6.242 6.242 0 0 1 .394 2.055c.041.9.051 1.206.051 3.491s-.01 2.586-.051 3.492a6.247 6.247 0 0 1-.394 2.055 4.329 4.329 0 0 1-2.476 2.477 6.278 6.278 0 0 1-2.055.393c-.921.04-1.225.05-3.491.05zm0-12.816a4.348 4.348 0 1 0 4.347 4.348 4.353 4.353 0 0 0-4.347-4.348zm0 7.17a2.822 2.822 0 1 1 2.822-2.821 2.825 2.825 0 0 1-2.822 2.822z" style="fill:#061826;stroke:transparent;stroke-miterlimit:10" transform="translate(.5 .5)"/>
        <path data-name="Контур 1633" d="M674.823 157.351a1.016 1.016 0 1 1-1.016-1.016 1.016 1.016 0 0 1 1.016 1.016" transform="translate(-660.32 -152.904)" style="fill:#fff"/>
    </g>
</svg>
