<svg xmlns="http://www.w3.org/2000/svg" width="23" height="23.001">
    <path data-name="Объединение 7" d="M-8363 78a11.011 11.011 0 0 1-11-11 11.012 11.012 0 0 1 11-11 11.013 11.013 0 0 1 11 11 11.011 11.011 0 0 1-11 11zm-.405-1.014v-5.33a10.086 10.086 0 0 0-5 1.54 8.4 8.4 0 0 0 5 3.79zm.813-.009a8.453 8.453 0 0 0 4.993-3.785 10.106 10.106 0 0 0-4.993-1.535zm2.6-.242a10.181 10.181 0 0 0 3.974-2.321 10.28 10.28 0 0 0-.912-.765 10 10 0 0 1-3.064 3.086zm-6.062-.016a9.98 9.98 0 0 1-3.017-3.064 10.221 10.221 0 0 0-.905.761 10.2 10.2 0 0 0 3.919 2.303zm10.6-2.884a10.143 10.143 0 0 0 2.631-6.427h-2.215a12.437 12.437 0 0 1-1.479 5.538 11.043 11.043 0 0 1 1.065.888zm-15.1 0a11.023 11.023 0 0 1 1.059-.884 12.457 12.457 0 0 1-1.474-5.542h-2.216a10.147 10.147 0 0 0 2.636 6.424zm1.731-1.341a10.907 10.907 0 0 1 5.412-1.652v-3.435h-6.746a11.676 11.676 0 0 0 1.34 5.085zm11.628 0a11.63 11.63 0 0 0 1.34-5.082h-6.743v3.433a10.9 10.9 0 0 1 5.409 1.645zm4.368-5.9a10.15 10.15 0 0 0-2.629-6.427 10.964 10.964 0 0 1-1.051.877 12.454 12.454 0 0 1 1.465 5.55zm-3.028 0a11.684 11.684 0 0 0-1.324-5.092 10.909 10.909 0 0 1-5.419 1.656v3.436zm-7.556 0v-3.435a10.91 10.91 0 0 1-5.425-1.661 11.712 11.712 0 0 0-1.321 5.1zm-7.559 0a12.508 12.508 0 0 1 1.459-5.555 11.052 11.052 0 0 1-1.044-.872 10.142 10.142 0 0 0-2.631 6.427zm7.559-4.249v-5.332a8.365 8.365 0 0 0-5.018 3.781 10.1 10.1 0 0 0 5.024 1.551zm.813 0a10.1 10.1 0 0 0 5.01-1.546 8.415 8.415 0 0 0-5.01-3.777zm5.677-2.005a10.172 10.172 0 0 0 .9-.753 10.183 10.183 0 0 0-3.934-2.309 9.876 9.876 0 0 1 3.039 3.061zm-12.174-.006a9.854 9.854 0 0 1 3-3.041 10.215 10.215 0 0 0-3.885 2.292 10.273 10.273 0 0 0 .89.749z" transform="translate(8374.5 -55.499)" style="fill:#fff;stroke:transparent;stroke-miterlimit:10"/>
</svg>
